P3
8 8
255
0
0
0
0
0
0
0
0
0
0
0
0
44
128
255
44
128
255
44
128
255
44
128
255
0
0
0
0
0
0
0
0
0
0
0
0
44
128
255
44
128
255
44
128
255
44
128
255
0
0
0
0
0
0
0
0
0
0
0
0
44
128
255
44
128
255
44
128
255
44
128
255
0
0
0
0
0
0
0
0
0
0
0
0
44
128
255
44
128
255
44
128
255
44
128
255
44
128
255
44
128
255
44
128
255
44
128
255
0
0
0
0
0
0
0
0
0
0
0
0
44
128
255
44
128
255
44
128
255
44
128
255
0
0
0
0
0
0
0
0
0
0
0
0
44
128
255
44
128
255
44
128
255
44
128
255
0
0
0
0
0
0
0
0
0
0
0
0
44
128
255
44
128
255
44
128
255
44
128
255
0
0
0
0
0
0
0
0
0
0
0
0
